<svg width="327" height="280" viewBox="0 0 327 280" fill="none" xmlns="http://www.w3.org/2000/svg">
<rect x="93.1956" y="46.5977" width="46.5977" height="46.5977" fill="#FAFAFA"/>
<rect y="46.5977" width="46.5977" height="46.5977" fill="#FAFAFA"/>
<rect x="93.1956" y="230.77" width="46.5977" height="46.5977" fill="#FAFAFA"/>
<rect x="186.391" y="46.5977" width="46.5977" height="46.5977" fill="#FAFAFA"/>
<rect width="46.5977" height="46.5977" transform="matrix(1 0 0 -1 186.391 230.77)" fill="#FAFAFA"/>
<rect x="46.5977" y="115.385" width="46.5977" height="46.5977" fill="#FAFAFA"/>
<rect x="139.793" y="115.385" width="46.5977" height="46.5977" fill="#FAFAFA"/>
<rect x="93.1956" y="-6.10352e-05" width="46.5977" height="46.5977" fill="#FAFAFA"/>
<rect width="46.5977" height="46.5977" fill="#FAFAFA"/>
<rect x="93.1956" y="184.172" width="46.5977" height="46.5977" fill="#FAFAFA"/>
<rect y="93.1954" width="46.5977" height="46.5977" fill="#FAFAFA"/>
<rect y="139.793" width="46.5977" height="46.5977" fill="#FAFAFA"/>
<rect y="186.391" width="46.5977" height="46.5977" fill="#FAFAFA"/>
<rect y="232.989" width="46.5977" height="46.5977" fill="#FAFAFA"/>
<rect x="186.391" y="-6.10352e-05" width="46.5977" height="46.5977" fill="#FAFAFA"/>
<rect width="46.5977" height="46.5977" transform="matrix(1 0 0 -1 186.391 277.367)" fill="#FAFAFA"/>
<rect x="232.989" y="-6.10352e-05" width="46.5977" height="46.5977" fill="#FAFAFA"/>
<rect x="279.586" y="-6.10352e-05" width="46.5977" height="46.5977" fill="#FAFAFA"/>
<rect width="46.5977" height="46.5977" transform="matrix(1 0 0 -1 232.989 277.367)" fill="#FAFAFA"/>
<rect width="46.5977" height="46.5977" transform="matrix(1 0 0 -1 279.586 277.367)" fill="#FAFAFA"/>
<rect x="93.1956" y="115.385" width="46.5977" height="46.5977" fill="#FAFAFA"/>
<rect x="186.391" y="115.385" width="46.5977" height="46.5977" fill="#FAFAFA"/>
<rect x="232.989" y="115.385" width="46.5977" height="46.5977" fill="#FAFAFA"/>
<rect x="279.586" y="115.385" width="23.2989" height="46.5977" fill="#FAFAFA"/>
</svg>
